# xmcd
#
# Track frame offsets: 
#        150
#        12985
#        26280
#        41270
#        56372
#        69620
#        85392
#        104790
#        120140
#        132310
#        145857
#        161417
#        178375
#        194647
#        211707
#        226742
#        238205
#        253942
#        268545
#        279447
#        293310
#        304202
#        322445
#        337837
#
# Disc length: 4745 seconds
#
# Revision: 7
# Processed by: cddbd v1.5.2PL0 Copyright (c) Steve Scherf et al.
# Submitted via: ExactAudioCopyFreeDBPlugin 1.0
#
DISCID=5c128718
DTITLE=Various Artist - The Complete Stax-Volt Singles, 1959-1975
DYEAR=1994
DGENRE=Soul
TTITLE0=Eddie Floyd - Yum Yum Yum (I Want Some)
TTITLE1=Jean Knight - Carry On
TTITLE2=Isaac Hayes - Do Your Thing
TTITLE3=Frederick Knight - I've Been Lonely for So Long
TTITLE4=Annette Thomas - Nothing is Everlasting
TTITLE5=The Soul Children - Hearsay
TTITLE6=Albert King - Angel of Mercy
TTITLE7=The Dramatics - In the Rain
TTITLE8=Lee Sain - She's My Old Lady Too
TTITLE9=The Temprees - Explain it to Her Mama
TTITLE10=Sons of Slum - Right On
TTITLE11=Johnnie Taylor - Doing My Own Thing (Part 1)
TTITLE12=The Emotions - My Honey and Me
TTITLE13=Isaac Hayes - Let's Stay Together (instrumental)
TTITLE14=Hot Sauce - Bring it Home (And Give it to Me)
TTITLE15=Black Society - Look Around You
TTITLE16=The Nightingales - Don't Do it I'm with You
TTITLE17=The Staple Singers - I'll Take You There
TTITLE18=The Leaders - Which Way
TTITLE19=Veda Brown - Living a Life Without Love
TTITLE20=Harvey Scales - What's Good for You (Don't Have to Be Good to
TTITLE20=You)
TTITLE21=The Mad Lads - Let Me Repair Your Heart
TTITLE22=Eric Mercury - What's Usual Seems Natur'l
TTITLE23=Major Lance - I Wanna Make Up (Before We Break Up)
EXTD=
EXTT0=
EXTT1=
EXTT2=
EXTT3=
EXTT4=
EXTT5=
EXTT6=
EXTT7=
EXTT8=
EXTT9=
EXTT10=
EXTT11=
EXTT12=
EXTT13=
EXTT14=
EXTT15=
EXTT16=
EXTT17=
EXTT18=
EXTT19=
EXTT20=
EXTT21=
EXTT22=
EXTT23=
PLAYORDER=
